<svg xmlns="http://www.w3.org/2000/svg" width="24" height="24" fill="none">
  <path stroke="#FCFCFB" stroke-linecap="round" stroke-linejoin="round" d="M20.36 15.14a31.025 31.025 0 0 1-3.15-.555 1.555 1.555 0 0 0-1.5.29c-.265.27-1.03 1.025-1.825 1.805a14.346 14.346 0 0 1-6.55-6.555c.775-.795 1.5-1.555 1.795-1.82a1.555 1.555 0 0 0 .29-1.5 30.92 30.92 0 0 1-.555-3.155 1 1 0 0 0-1.15-.885h-4.26a.75.75 0 0 0-.68.685C2.5 7.295 4.645 11.41 5.08 12.2v.03l.06.115a17.72 17.72 0 0 0 6.5 6.5v0l.22.125c1 .53 4.975 2.53 8.69 2.255a.75.75 0 0 0 .695-.68V16.29a1 1 0 0 0-.885-1.15Z"/>
</svg>
